<?xml version="1.0" encoding="UTF-8"?>
<svg width="20px" height="20px" viewBox="0 0 20 20" version="1.1" xmlns="http://www.w3.org/2000/svg" xmlns:xlink="http://www.w3.org/1999/xlink">
    <!-- Generator: Sketch 48.2 (47327) - http://www.bohemiancoding.com/sketch -->
    <title>write-message</title>
    <desc>Created with Sketch.</desc>
    <defs></defs>
    <g id="Voor-Bureaus-Copy-22" stroke="none" stroke-width="1" fill="none" fill-rule="evenodd" transform="translate(-1646.000000, -265.000000)">
        <g id="write-message" transform="translate(1646.000000, 265.000000)" fill="#A3A3A3">
            <path d="M10,0 C4.47715,0 0,4.47715 0,10 C0,11.8153 0.48451,13.5196 1.33127,14.9883 C1.50372,15.2874 1.5333,15.6516 1.38777,15.9647 L0.53406,17.8016 C0.00986,18.7933 0.72736,20 1.86159,20 L10,20 C15.5228,20 20,15.5228 20,10 C20,4.47715 15.5228,0 10,0 Z M6.0002,11.3 C6.71817,11.3 7.3002,10.7179 7.3002,10 C7.3002,9.282 6.71817,8.7 6.0002,8.7 C5.28223,8.7 4.7002,9.282 4.7002,10 C4.7002,10.7179 5.28223,11.3 6.0002,11.3 Z M14.0002,11.3 C14.7182,11.3 15.3002,10.7179 15.3002,10 C15.3002,9.282 14.7182,8.7 14.0002,8.7 C13.2822,8.7 12.7002,9.282 12.7002,10 C12.7002,10.7179 13.2822,11.3 14.0002,11.3 Z M10.0002,11.3 C10.7182,11.3 11.3002,10.7179 11.3002,10 C11.3002,9.282 10.7182,8.7 10.0002,8.7 C9.2822,8.7 8.7002,9.282 8.7002,10 C8.7002,10.7179 9.2822,11.3 10.0002,11.3 Z" id="Shape"></path>
        </g>
    </g>
</svg>