<?xml version="1.0" encoding="UTF-8"?>
<svg width="18px" height="20px" viewBox="0 0 18 20" version="1.1" xmlns="http://www.w3.org/2000/svg" xmlns:xlink="http://www.w3.org/1999/xlink">
    <!-- Generator: Sketch 48.2 (47327) - http://www.bohemiancoding.com/sketch -->
    <title>book (1)</title>
    <desc>Created with Sketch.</desc>
    <defs></defs>
    <g id="Voor-Bureaus-Copy-22" stroke="none" stroke-width="1" fill="none" fill-rule="evenodd" transform="translate(-1341.000000, -438.000000)">
        <g id="book-(1)" transform="translate(1341.000000, 438.000000)" fill="#A3A3A3" fill-rule="nonzero">
            <path d="M3.012,16 L18,16 L18,2 C18,1.46957 17.7893,0.96086 17.4142,0.58579 C17.0391,0.21071 16.5304,0 16,0 L3,0 C1.794,0 0,0.799 0,3 L0,17 C0,19.201 1.794,20 3,20 L18,20 L18,18 L3.012,18 C2.55,17.988 2,17.805 2,17 C2,16.195 2.55,16.012 3.012,16 Z M5,4 L14,4 L14,6 L5,6 L5,4 Z" id="Shape"></path>
        </g>
    </g>
</svg>