<svg xmlns="http://www.w3.org/2000/svg" viewBox="0 0 200 200" width="200" height="200">
  <!-- Hintergrund-Kreis (blau) -->
  <circle cx="100" cy="100" r="95" fill="#003399" stroke="#0033cc" stroke-width="2"/>
  
  <!-- Zentrale Punkt -->
  <circle cx="100" cy="100" r="8" fill="#ffcc00" stroke="#ffffff" stroke-width="1"/>
  
  <!-- 12 Sterne in einem Kreis (EU-Flagge-Stil) -->
  <g id="stars">
    <!-- Stern 1 (oben) -->
    <path d="M 100 25 L 105 35 L 115 35 L 107.5 42 L 110 52 L 100 47 L 90 52 L 92.5 42 L 85 35 L 95 35 Z" fill="#ffcc00"/>
    <!-- Stern 2 (oben rechts) -->
    <path d="M 158 38 L 163 48 L 173 48 L 165.5 55 L 168 65 L 158 60 L 148 65 L 150.5 55 L 143 48 L 153 48 Z" fill="#ffcc00"/>
    <!-- Stern 3 (rechts oben) -->
    <path d="M 175 100 L 185 95 L 185 105 L 192 102.5 L 195 112 L 188 107.5 L 188 117.5 L 178 112.5 L 178 102.5 L 171 105 Z" fill="#ffcc00"/>
    <!-- Stern 4 (rechts unten) -->
    <path d="M 158 162 L 168 157 L 168 167 L 175 164.5 L 178 174 L 171 169.5 L 171 179.5 L 161 174.5 L 161 164.5 L 154 167 Z" fill="#ffcc00"/>
    <!-- Stern 5 (unten rechts) -->
    <path d="M 100 175 L 105 165 L 115 165 L 107.5 158 L 110 148 L 100 153 L 90 148 L 92.5 158 L 85 165 L 95 165 Z" fill="#ffcc00"/>
    <!-- Stern 6 (unten) -->
    <path d="M 42 162 L 32 157 L 32 167 L 24.5 164.5 L 22 174 L 29 169.5 L 29 179.5 L 39 174.5 L 39 164.5 L 46 167 Z" fill="#ffcc00"/>
    <!-- Stern 7 (unten links) -->
    <path d="M 25 100 L 15 95 L 15 105 L 7.5 102.5 L 5 112 L 12 107.5 L 12 117.5 L 22 112.5 L 22 102.5 L 29 105 Z" fill="#ffcc00"/>
    <!-- Stern 8 (links unten) -->
    <path d="M 42 38 L 52 33 L 52 43 L 59.5 40.5 L 62 50 L 55 45.5 L 55 55.5 L 45 50.5 L 45 40.5 L 38 43 Z" fill="#ffcc00"/>
    <!-- Stern 9 (links oben) -->
    <path d="M 65 52 L 75 47 L 75 57 L 82.5 54.5 L 85 64 L 78 59.5 L 78 69.5 L 68 64.5 L 68 54.5 L 61 57 Z" fill="#ffcc00"/>
    <!-- Stern 10 (oben links) -->
    <path d="M 45 65 L 55 60 L 55 70 L 62.5 67.5 L 65 77 L 58 72.5 L 58 82.5 L 48 77.5 L 48 67.5 L 41 70 Z" fill="#ffcc00"/>
    <!-- Stern 11 (oben Mitte) -->
    <path d="M 125 52 L 135 47 L 135 57 L 142.5 54.5 L 145 64 L 138 59.5 L 138 69.5 L 128 64.5 L 128 54.5 L 121 57 Z" fill="#ffcc00"/>
    <!-- Stern 12 (oben rechts) -->
    <path d="M 145 65 L 155 60 L 155 70 L 162.5 67.5 L 165 77 L 158 72.5 L 158 82.5 L 148 77.5 L 148 67.5 L 141 70 Z" fill="#ffcc00"/>
  </g>
  
  <!-- Text: Made in Europe -->
  <text x="100" y="190" font-family="Arial, sans-serif" font-size="12" fill="#ffffff" text-anchor="middle" font-weight="bold">Made in Europe</text>
  
  <!-- MYOPENAi(C)R Text -->
  <text x="100" y="15" font-family="Arial, sans-serif" font-size="10" fill="#ffcc00" text-anchor="middle" font-weight="bold">MYOPENAi(C)R</text>
</svg>









