<svg
    width="600"
    height="600"
    viewBox="0 0 500 500"
    xmlns="http://www.w3.org/2000/svg"
    xmlns:xlink="http://www.w3.org/1999/xlink">
  <!-- Tooltip / Popup-Text beim Hover -->
  <title>
T,.&T,,.&T,,,.T,.0031613803782.T,.R.D.TEL-DR.TEL.T,.&T,,.&T,,,.T,. x@tel1.nl gentlyoverdone.com
  </title>
  <!-- Hintergrundkreis -->
  <circle cx="250" cy="250" r="240" fill="#003399" />
  <!-- Stern-Definition (wird mehrfach benutzt) -->
  <defs>
    <g id="star">
      <polygon
        points="0,-20 5.88,-6.18 19.02,-6.18 8.57,2.36 11.76,16.18 0,8 -11.76,16.18 -8.57,2.36 -19.02,-6.18 -5.88,-6.18"
        fill="#FFCC00" />
    </g>
  </defs>
  <!-- 12 Sterne wie auf der EU-Flagge -->
  <g transform="translate(250,250)">
    <!-- Winkel: 0, 30, 60, ..., 330 Grad -->
    <use href="#star" transform="rotate(0) translate(0,-200)" />
    <use href="#star" transform="rotate(30) translate(0,-200)" />
    <use href="#star" transform="rotate(60) translate(0,-200)" />
    <use href="#star" transform="rotate(90) translate(0,-200)" />
    <use href="#star" transform="rotate(120) translate(0,-200)" />
    <use href="#star" transform="rotate(150) translate(0,-200)" />
    <use href="#star" transform="rotate(180) translate(0,-200)" />
    <use href="#star" transform="rotate(210) translate(0,-200)" />
    <use href="#star" transform="rotate(240) translate(0,-200)" />
    <use href="#star" transform="rotate(270) translate(0,-200)" />
    <use href="#star" transform="rotate(300) translate(0,-200)" />
    <use href="#star" transform="rotate(330) translate(0,-200)" />
  </g>
  <!-- Text in der Mitte -->
  <g font-family="Arial, Helvetica, sans-serif" fill="#FFFFFF" text-anchor="middle">
    <text x="250" y="240" font-size="58" font-weight="bold">MYOPENA</text>
    <text x="250" y="280" font-size="22">{MOAI(C)T.,&amp;T.,&amp;T..,</text>
    <text x="250" y="308" font-size="22">.(C)INTERNATIONAL TTT.,</text>
  </g>
</svg>









